# xmcd CD database file
#
# Track frame offsets:
#	150
#	21568
#	36349
#	69773
#	88327
#	105580
#	128600
#	162665
#	182763
#	206373
#	226286
#
# Disc length: 3304 seconds
#
# Revision: 0
# Processed by: cddbd v1.5.2PL0 Copyright (c) Steve Scherf et al.
# Submitted via: CDex 1.51
#
DISCID=920ce60b
DTITLE=Clean, Fine and Funky (Big Band der Musikhochschule Hannover) - Clean, Fine and Funky
DYEAR=1997
DGENRE=Jazz
TTITLE0=The Tunnel
TTITLE1=Tuxedo Junction
TTITLE2=Nowhere To Go
TTITLE3=All Of Me
TTITLE4=Gato
TTITLE5=Dat Dere
TTITLE6=Mira, Mira
TTITLE7=Send In The Clowns
TTITLE8=Freckle Face
TTITLE9=Us
TTITLE10=Back Bone
EXTD=YEAR: 1997
EXTT0=
EXTT1=
EXTT2=
EXTT3=
EXTT4=
EXTT5=
EXTT6=
EXTT7=
EXTT8=
EXTT9=
EXTT10=
PLAYORDER=
